# This file uses centimeters as units for non-parametric coordinates.

mtllib background_test2.mtl
g default
v -11.829353 -0.000000 11.829353
v -9.463483 -0.000000 11.829353
v -7.097612 -0.000000 11.829353
v -4.731741 -0.000000 11.829353
v -2.365870 -0.000000 11.829353
v 0.000000 -0.000000 11.829353
v 2.365871 -0.000000 11.829353
v 4.731741 -0.000000 11.829353
v 7.097612 -0.000000 11.829353
v 9.463484 -0.000000 11.829353
v 11.829353 -0.000000 11.829353
v -11.829353 -0.000000 9.463483
v -9.463483 -0.000000 9.463483
v -7.097612 -0.000000 9.463483
v -4.731741 -0.000000 9.463483
v -2.365870 -0.000000 9.463483
v 0.000000 -0.000000 9.463483
v 2.365871 -0.000000 9.463483
v 4.731741 -0.000000 9.463483
v 7.097612 -0.000000 9.463483
v 9.463484 -0.000000 9.463483
v 11.829353 -0.000000 9.463483
v -11.829353 -0.000000 7.097612
v -9.463483 -0.000000 7.097612
v -7.097612 -0.000000 7.097612
v -4.731741 -0.000000 7.097612
v -2.365870 1.079688 7.097612
v 0.000000 3.509354 7.097612
v 2.365871 1.155678 7.097612
v 4.731741 -0.000000 7.097612
v 7.097612 0.001703 7.097612
v 9.463484 -0.000000 7.097612
v 11.829353 -0.000000 7.097612
v -11.829353 -0.000000 4.731741
v -9.463483 -0.000000 4.731741
v -7.097612 -0.000000 4.731741
v -4.731741 1.079688 4.731741
v -2.365870 3.509354 4.731741
v 0.000000 0.057529 4.731741
v 2.365871 0.057529 4.731741
v 4.731741 0.001703 4.731741
v 7.097612 0.057529 4.731741
v 9.463484 1.155678 4.731741
v 11.829353 -0.000000 4.731741
v -11.829353 -0.000000 2.365870
v -9.463483 -0.000000 2.365870
v -7.097612 1.079688 2.365870
v -4.731741 3.509354 2.365870
v -2.365870 0.057529 2.365870
v 0.000000 0.057529 2.365870
v 2.365871 0.001703 2.365870
v 4.731741 0.057529 2.365870
v 7.097612 0.057529 2.365870
v 9.463484 4.238541 2.365870
v 11.829353 -0.000000 2.365870
v -11.829353 0.000000 0.000000
v -9.463483 1.079688 0.000000
v -7.097612 3.509354 0.000000
v -4.731741 0.057529 0.000000
v -2.365870 0.057529 0.000000
v 0.000000 0.001703 0.000000
v 2.365871 0.057529 0.000000
v 4.731741 0.057529 0.000000
v 7.097612 4.238541 0.000000
v 9.463484 1.079688 0.000000
v 11.829353 0.000000 0.000000
v -11.829353 1.079688 -2.365871
v -9.463483 3.509354 -2.365871
v -7.097612 0.057529 -2.365871
v -4.731741 0.057529 -2.365871
v -2.365870 0.001703 -2.365871
v 0.000000 0.057529 -2.365871
v 2.365871 0.057529 -2.365871
v 4.731741 4.238541 -2.365871
v 7.097612 1.079688 -2.365871
v 9.463484 0.000000 -2.365871
v 11.829353 0.000000 -2.365871
v -11.829353 0.001703 -4.731741
v -9.463483 0.057529 -4.731741
v -7.097612 0.057529 -4.731741
v -4.731741 0.001703 -4.731741
v -2.365870 0.001703 -4.731741
v 0.000000 0.057529 -4.731741
v 2.365871 4.238541 -4.731741
v 4.731741 1.079688 -4.731741
v 7.097612 0.000000 -4.731741
v 9.463484 0.000000 -4.731741
v 11.829353 0.000000 -4.731741
v -11.829353 0.000000 -7.097612
v -9.463483 0.001703 -7.097612
v -7.097612 0.001703 -7.097612
v -4.731741 0.001703 -7.097612
v -2.365870 0.057529 -7.097612
v 0.000000 0.057529 -7.097612
v 2.365871 4.238541 -7.097612
v 4.731741 0.000000 -7.097612
v 7.097612 0.000000 -7.097612
v 9.463484 0.000000 -7.097612
v 11.829353 0.000000 -7.097612
v -11.829353 0.000000 -9.463484
v -9.463483 0.000000 -9.463484
v -7.097612 0.000000 -9.463484
v -4.731741 0.001703 -9.463484
v -2.365870 0.057529 -9.463484
v 0.000000 4.238541 -9.463484
v 2.365871 1.079688 -9.463484
v 4.731741 0.000000 -9.463484
v 7.097612 0.000000 -9.463484
v 9.463484 0.000000 -9.463484
v 11.829353 0.000000 -9.463484
v -11.829353 0.000000 -11.829353
v -9.463483 0.000000 -11.829353
v -7.097612 0.000000 -11.829353
v -4.731741 0.000000 -11.829353
v -2.365870 0.001703 -11.829353
v 0.000000 0.000000 -11.829353
v 2.365871 0.000000 -11.829353
v 4.731741 0.000000 -11.829353
v 7.097612 0.000000 -11.829353
v 9.463484 0.000000 -11.829353
v 11.829353 0.000000 -11.829353
v 0.000000 4.459913 4.731741
v 2.365871 4.459913 4.731741
v -2.365870 4.459913 2.365870
v 0.000000 4.459913 2.365870
v -4.731741 4.459913 0.000000
v -2.365870 4.459913 0.000000
v -7.097612 4.459913 -2.365871
v -4.731741 4.459913 -2.365871
v -9.463483 4.459913 -4.731741
v -11.829353 2.370215 -4.731741
v -7.097612 4.459913 -4.731741
v 7.097612 4.459913 4.731741
v 7.097612 4.459913 2.365870
v 4.731741 4.459913 2.365870
v 4.731741 4.459913 0.000000
v 2.365871 4.459913 0.000000
v 2.365871 4.459913 -2.365871
v 0.000000 4.459913 -2.365871
v 0.000000 4.459913 -4.731741
v 0.000000 4.459913 -7.097612
v -2.365870 4.459913 -7.097612
v -2.365870 4.459913 -9.463484
v -2.365870 2.370215 -11.829353
vt 0.000000 0.000000
vt 0.100000 0.000000
vt 0.200000 0.000000
vt 0.300000 0.000000
vt 0.400000 0.000000
vt 0.500000 0.000000
vt 0.600000 0.000000
vt 0.700000 0.000000
vt 0.800000 0.000000
vt 0.900000 0.000000
vt 1.000000 0.000000
vt 0.000000 0.100000
vt 0.100000 0.100000
vt 0.200000 0.100000
vt 0.300000 0.100000
vt 0.400000 0.100000
vt 0.500000 0.100000
vt 0.600000 0.100000
vt 0.700000 0.100000
vt 0.800000 0.100000
vt 0.900000 0.100000
vt 1.000000 0.100000
vt 0.000000 0.200000
vt 0.100000 0.200000
vt 0.200000 0.200000
vt 0.300000 0.200000
vt 0.400000 0.200000
vt 0.500000 0.200000
vt 0.600000 0.200000
vt 0.700000 0.200000
vt 0.800000 0.200000
vt 0.900000 0.200000
vt 1.000000 0.200000
vt 0.000000 0.300000
vt 0.100000 0.300000
vt 0.200000 0.300000
vt 0.300000 0.300000
vt 0.400000 0.300000
vt 0.500000 0.300000
vt 0.600000 0.300000
vt 0.700000 0.300000
vt 0.800000 0.300000
vt -0.000000 -0.000000
vt 1.000000 0.300000
vt 0.000000 0.400000
vt 0.100000 0.400000
vt 0.200000 0.400000
vt 0.300000 0.400000
vt 0.400000 0.400000
vt 0.500000 0.400000
vt 0.600000 0.400000
vt 0.700000 0.400000
vt 0.800000 0.400000
vt 0.900000 0.400000
vt 1.000000 0.400000
vt 0.000000 0.500000
vt 0.100000 0.500000
vt 0.200000 0.500000
vt 0.300000 0.500000
vt 0.400000 0.500000
vt 0.500000 0.500000
vt 0.600000 0.500000
vt 0.700000 0.500000
vt 0.800000 0.500000
vt 0.900000 0.500000
vt 1.000000 0.500000
vt 0.000000 0.600000
vt 0.100000 0.600000
vt -0.000000 -0.000000
vt 0.300000 0.600000
vt 0.400000 0.600000
vt 0.500000 0.600000
vt 0.600000 0.600000
vt -0.000000 -0.000000
vt 0.800000 0.600000
vt 0.900000 0.600000
vt 1.000000 0.600000
vt 0.000000 0.700000
vt 0.100000 0.700000
vt 0.200000 0.700000
vt 0.300000 0.700000
vt 0.400000 0.700000
vt 0.500000 0.700000
vt 0.600000 0.700000
vt 0.700000 0.700000
vt 0.800000 0.700000
vt 0.900000 0.700000
vt 1.000000 0.700000
vt 0.000000 0.800000
vt 0.100000 0.800000
vt 0.200000 0.800000
vt 0.300000 0.800000
vt 0.400000 0.800000
vt 0.500000 0.800000
vt 0.600000 0.800000
vt 0.700000 0.800000
vt 0.800000 0.800000
vt 0.900000 0.800000
vt 1.000000 0.800000
vt 0.000000 0.900000
vt 0.100000 0.900000
vt 0.200000 0.900000
vt 0.300000 0.900000
vt 0.400000 0.900000
vt 0.500000 0.900000
vt 0.600000 0.900000
vt 0.700000 0.900000
vt 0.800000 0.900000
vt 0.900000 0.900000
vt 1.000000 0.900000
vt 0.000000 1.000000
vt 0.100000 1.000000
vt 0.200000 1.000000
vt 0.300000 1.000000
vt 0.400000 1.000000
vt 0.500000 1.000000
vt 0.600000 1.000000
vt 0.700000 1.000000
vt 0.800000 1.000000
vt 0.900000 1.000000
vt 1.000000 1.000000
vt 0.600000 0.300000
vt 0.500000 0.300000
vt 0.500000 0.400000
vt 0.800000 0.400000
vt 0.300000 0.500000
vt 0.900000 0.500000
vt 0.100000 0.500000
vt 0.600000 0.500000
vt 0.600000 0.600000
vt 0.000000 0.700000
vt 0.500000 0.600000
vt 0.500000 0.700000
vt 0.500000 0.800000
vt 0.400000 0.800000
vt 0.400000 0.900000
vt 0.400000 1.000000
vn 0.000000 1.000000 0.000000
vn 0.000000 1.000000 0.000000
vn 0.000000 1.000000 0.000000
vn 0.000000 1.000000 0.000000
vn 0.000000 1.000000 0.000000
vn 0.000000 1.000000 0.000000
vn 0.000000 1.000000 0.000000
vn -0.056860 0.996762 0.056860
vn 0.000000 1.000000 0.000000
vn -0.174883 0.943194 0.282492
vn 0.000000 1.000000 0.000000
vn -0.003607 0.898362 0.439241
vn 0.000000 1.000000 0.000000
vn 0.174505 0.941155 0.289439
vn 0.000000 1.000000 0.000000
vn 0.060744 0.996292 0.060923
vn 0.000000 1.000000 0.000000
vn 0.000000 1.000000 0.000180
vn 0.000000 1.000000 0.000000
vn 0.000090 1.000000 0.000090
vn 0.000000 1.000000 0.000000
vn 0.000000 1.000000 0.000000
vn 0.000000 1.000000 0.000000
vn 0.000000 1.000000 0.000000
vn -0.056860 0.996762 0.056860
vn -0.265906 0.926600 0.265906
vn -0.393607 0.758330 0.519624
vn -0.003538 0.714951 0.699166
vn 0.309118 0.881994 0.355713
vn 0.121034 0.992629 0.006225
vn -0.060721 0.995907 0.066954
vn 0.003206 0.992254 0.124183
vn 0.120338 0.985412 0.120338
vn -0.056860 0.996762 0.056860
vn 0.000000 1.000000 0.000000
vn -0.265906 0.926600 0.265906
vn -0.458439 0.761359 0.458439
vn -0.511780 0.690045 0.511780
vn -0.502549 0.703483 0.502549
vn -0.084678 0.775531 0.625605
vn -0.103763 0.852307 0.512646
vn -0.444076 0.778198 0.444076
vn 0.346908 0.697411 0.627114
vn 0.346908 0.697411 0.627114
vn 0.057857 0.996980 -0.051795
vn 0.088989 0.992741 -0.080908
vn -0.084863 0.992049 0.092938
vn 0.399412 0.846727 0.351460
vn 0.534043 0.771600 0.345587
vn -0.265906 0.926600 0.265906
vn -0.112633 0.987232 0.112633
vn -0.458439 0.761359 0.458439
vn -0.511780 0.690045 0.511780
vn -0.502549 0.703483 0.502549
vn -0.321955 0.890331 0.321955
vn -0.444076 0.778198 0.444076
vn -0.193243 0.961933 0.193243
vn 0.011797 0.999861 -0.011797
vn -0.000000 1.000000 -0.000000
vn 0.007866 0.999938 -0.007866
vn -0.007866 0.999938 0.007866
vn -0.011797 0.999861 0.011797
vn 0.529563 0.710730 0.463061
vn 0.529563 0.710730 0.463061
vn 0.589279 0.807528 -0.025485
vn 0.448201 0.893377 -0.031529
vn 0.749434 0.662057 -0.005316
vn 0.749454 0.662050 -0.002970
vn -0.458439 0.761358 0.458439
vn -0.391386 0.832847 0.391386
vn -0.511780 0.690045 0.511780
vn -0.502549 0.703483 0.502549
vn -0.321955 0.890331 0.321955
vn -0.444076 0.778198 0.444076
vn -0.193243 0.961933 0.193243
vn 0.011797 0.999861 -0.011797
vn -0.000000 1.000000 0.000000
vn 0.007866 0.999938 -0.007866
vn -0.007866 0.999938 0.007866
vn -0.011797 0.999861 0.011797
vn 0.046682 0.997818 -0.046683
vn 0.407967 0.816778 -0.407967
vn 0.251007 0.934875 -0.251007
vn 0.502549 0.703483 -0.502549
vn 0.525097 0.776698 -0.347870
vn 0.560162 0.699815 -0.443258
vn -0.511780 0.690045 0.511780
vn -0.511780 0.690045 0.511780
vn -0.502549 0.703483 0.502549
vn -0.321955 0.890331 0.321955
vn -0.509218 0.774682 0.374920
vn -0.193243 0.961933 0.193243
vn 0.011797 0.999861 -0.011797
vn -0.000001 0.999983 -0.005899
vn 0.011797 0.999861 -0.011797
vn -0.011799 0.999923 0.003933
vn -0.011797 0.999861 0.011797
vn 0.046683 0.997818 -0.046682
vn 0.407967 0.816777 -0.407967
vn 0.251007 0.934875 -0.251007
vn 0.502549 0.703483 -0.502549
vn 0.555019 0.619602 -0.555019
vn 0.293211 0.909975 -0.293211
vn 0.503433 0.702219 -0.503433
vn 0.112633 0.987232 -0.112633
vn -0.653428 0.684134 0.324025
vn -0.460444 0.844098 0.274755
vn -0.653428 0.684134 0.324025
vn -0.193243 0.961933 0.193243
vn 0.011797 0.999861 -0.011797
vn 0.005898 0.999965 -0.005898
vn 0.007864 0.999845 -0.015729
vn -0.008848 0.999957 0.002949
vn -0.017694 0.999826 0.005898
vn 0.046683 0.997818 -0.046683
vn 0.271916 0.931063 -0.243278
vn 0.069986 0.997275 -0.023329
vn 0.502549 0.703483 -0.502549
vn 0.555019 0.619602 -0.555020
vn 0.293211 0.909975 -0.293211
vn 0.655993 0.682411 -0.322472
vn 0.056860 0.996762 -0.056860
vn 0.000000 1.000000 0.000000
vn -0.012156 0.999852 -0.012156
vn -0.006077 0.999822 -0.017875
vn -0.003129 0.999953 -0.009208
vn -0.006259 0.999961 -0.006259
vn 0.002859 0.999954 -0.009118
vn -0.005989 0.999982 -0.000090
vn -0.015729 0.999845 0.007864
vn -0.011797 0.999861 0.011797
vn 0.360258 0.876170 -0.320218
vn 0.265557 0.934675 -0.236350
vn 0.836109 0.534817 -0.122034
vn 0.545414 0.806218 -0.229208
vn 0.798160 0.563888 -0.212066
vn 0.056860 0.996762 -0.056860
vn 0.000000 1.000000 0.000000
vn 0.000000 1.000000 0.000000
vn -0.000090 1.000000 -0.000270
vn -0.000180 1.000000 -0.000180
vn -0.000180 1.000000 -0.000360
vn -0.009118 0.999953 -0.003219
vn -0.017875 0.999822 -0.006077
vn 0.046683 0.997818 -0.046683
vn 0.339585 0.766349 -0.545336
vn 0.234974 0.804087 -0.546106
vn 0.502549 0.703483 -0.502549
vn 0.313259 0.926715 -0.207530
vn 0.503433 0.702218 -0.503433
vn 0.000000 1.000000 0.000000
vn 0.000000 1.000000 0.000000
vn 0.000000 1.000000 0.000000
vn 0.000000 1.000000 0.000000
vn 0.000000 1.000000 0.000000
vn -0.000180 1.000000 -0.000180
vn -0.006259 0.999961 -0.006259
vn -0.012156 0.999852 -0.012156
vn 0.311646 0.569007 -0.760991
vn 0.311646 0.569007 -0.760991
vn 0.405611 0.607576 -0.682884
vn 0.347870 0.776697 -0.525097
vn 0.405611 0.607576 -0.682884
vn 0.112633 0.987232 -0.112633
vn 0.000000 1.000000 0.000000
vn 0.000000 1.000000 0.000000
vn 0.000000 1.000000 0.000000
vn 1.000000 0.000000 0.000000
vn 1.000000 0.000000 0.000000
vn 1.000000 0.000000 0.000000
vn 0.000000 0.000000 -1.000000
vn 0.000000 0.000000 -1.000000
vn 0.000000 0.000000 -1.000000
vn 0.000000 0.000000 -1.000000
vn 1.000000 0.000000 0.000000
vn 1.000000 0.000000 0.000000
vn 1.000000 0.000000 0.000000
vn 1.000000 0.000000 0.000000
vn 0.000000 0.000000 -1.000000
vn 0.000000 0.000000 -1.000000
vn 0.000000 0.000000 -1.000000
vn 0.000000 0.000000 -1.000000
vn 1.000000 0.000000 0.000000
vn 1.000000 0.000000 0.000000
vn 1.000000 0.000000 0.000000
vn 1.000000 0.000000 0.000000
vn 0.000000 0.000000 -1.000000
vn 0.000000 0.000000 -1.000000
vn 0.000000 0.000000 -1.000000
vn 0.000000 0.000000 -1.000000
vn 1.000000 0.000000 0.000000
vn 1.000000 0.000000 0.000000
vn 1.000000 0.000000 0.000000
vn 1.000000 0.000000 0.000000
vn 0.000000 0.000000 -1.000000
vn 0.000000 0.000000 -1.000000
vn 0.000000 0.000000 -1.000000
vn 0.000000 0.000000 -1.000000
vn -0.000000 0.000000 -1.000000
vn -0.000000 0.000000 -1.000000
vn -0.000000 0.000000 -1.000000
vn -0.000000 0.000000 -1.000000
vn -1.000000 0.000000 0.000000
vn -1.000000 0.000000 0.000000
vn -1.000000 0.000000 0.000000
vn 1.000000 0.000000 0.000000
vn 1.000000 0.000000 0.000000
vn 1.000000 0.000000 0.000000
vn 1.000000 0.000000 0.000000
vn 0.000000 0.000000 -1.000000
vn 0.000000 0.000000 -1.000000
vn 0.000000 0.000000 -1.000000
vn 0.000000 0.000000 -1.000000
vn 0.000000 0.000000 1.000000
vn 0.000000 0.000000 1.000000
vn 0.000000 0.000000 1.000000
vn -1.000000 0.000000 0.000000
vn -1.000000 0.000000 0.000000
vn -1.000000 0.000000 0.000000
vn -1.000000 0.000000 0.000000
vn 0.000000 0.000000 1.000000
vn 0.000000 0.000000 1.000000
vn 0.000000 0.000000 1.000000
vn 0.000000 0.000000 1.000000
vn -1.000000 0.000000 0.000000
vn -1.000000 0.000000 0.000000
vn -1.000000 0.000000 0.000000
vn -1.000000 0.000000 0.000000
vn 0.000000 0.000000 1.000000
vn 0.000000 0.000000 1.000000
vn 0.000000 0.000000 1.000000
vn 0.000000 0.000000 1.000000
vn -1.000000 0.000000 0.000000
vn -1.000000 0.000000 0.000000
vn -1.000000 0.000000 0.000000
vn -1.000000 0.000000 0.000000
vn 0.000000 0.000000 1.000000
vn 0.000000 0.000000 1.000000
vn 0.000000 0.000000 1.000000
vn 0.000000 0.000000 1.000000
vn -1.000000 0.000000 0.000000
vn -1.000000 0.000000 0.000000
vn -1.000000 0.000000 0.000000
vn -1.000000 0.000000 0.000000
vn -1.000000 0.000000 0.000000
vn -1.000000 0.000000 0.000000
vn -1.000000 0.000000 0.000000
vn -1.000000 0.000000 0.000000
vn 0.000000 0.000000 1.000000
vn 0.000000 0.000000 1.000000
vn 0.000000 0.000000 1.000000
vn 0.000000 0.000000 1.000000
vn -1.000000 0.000000 0.000000
vn -1.000000 0.000000 0.000000
vn -1.000000 0.000000 0.000000
vn -1.000000 0.000000 0.000000
vn -0.000001 0.000000 -1.000000
vn -0.000001 0.000000 -1.000000
vn -0.000001 0.000000 -1.000000
vn -1.000000 0.000000 0.000000
vn -1.000000 0.000000 0.000000
vn -1.000000 0.000000 0.000000
vn -1.000000 0.000000 0.000000
s 1
g pPlane1
usemtl initialShadingGroup
f 1/1/1 2/2/2 13/13/3 12/12/4
f 2/2/2 3/3/5 14/14/6 13/13/3
f 3/3/5 4/4/7 15/15/8 14/14/6
f 4/4/7 5/5/9 16/16/10 15/15/8
f 5/5/9 6/6/11 17/17/12 16/16/10
f 6/6/11 7/7/13 18/18/14 17/17/12
f 7/7/13 8/8/15 19/19/16 18/18/14
f 8/8/15 9/9/17 20/20/18 19/19/16
f 9/9/17 10/10/19 21/21/20 20/20/18
f 10/10/19 11/11/21 22/22/22 21/21/20
f 12/12/4 13/13/3 24/24/23 23/23/24
f 13/13/3 14/14/6 25/25/25 24/24/23
f 14/14/6 15/15/8 26/26/26 25/25/25
f 15/15/8 16/16/10 27/27/27 26/26/26
f 16/16/10 17/17/12 28/28/28 27/27/27
f 17/17/12 18/18/14 29/29/29 28/28/28
f 18/18/14 19/19/16 30/30/30 29/29/29
f 19/19/16 20/20/18 31/31/31 30/30/30
f 20/20/18 21/21/20 32/32/32 31/31/31
f 21/21/20 22/22/22 33/33/33 32/32/32
f 23/23/24 24/24/23 35/35/34 34/34/35
f 24/24/23 25/25/25 36/36/36 35/35/34
f 25/25/25 26/26/26 37/37/37 36/36/36
f 26/26/26 27/27/27 38/38/38 37/37/37
s 2
f 27/27/39 28/28/40 122/39/41 38/38/42
f 28/28/40 29/29/43 123/122/44 122/123/41
s 1
f 29/29/29 30/30/30 41/41/45 40/40/46
f 30/30/30 31/31/31 42/42/47 41/41/45
f 31/31/31 32/32/32 43/43/48 42/42/47
f 32/32/32 33/33/33 44/44/49 43/43/48
f 34/34/35 35/35/34 46/46/50 45/45/51
f 35/35/34 36/36/36 47/47/52 46/46/50
f 36/36/36 37/37/37 48/48/53 47/47/52
s 2
f 37/37/54 38/38/42 124/49/55 48/48/56
f 38/38/42 122/123/41 125/124/57 124/49/55
s 1
f 39/39/58 40/40/46 51/51/59 50/50/60
f 40/40/46 41/41/45 52/52/61 51/51/59
f 41/41/45 42/42/47 53/53/62 52/52/61
s 3
f 133/42/63 43/43/64 54/54/65 134/125/66
s 1
f 43/43/48 44/44/49 55/55/67 54/54/68
f 45/45/51 46/46/50 57/57/69 56/56/70
f 46/46/50 47/47/52 58/58/71 57/57/69
s 2
f 47/47/72 48/48/56 126/59/73 58/58/74
f 48/48/56 124/49/55 127/60/75 126/126/73
s 1
f 49/49/76 50/50/60 61/61/77 60/60/78
f 50/50/60 51/51/59 62/62/79 61/61/77
f 51/51/59 52/52/61 63/63/80 62/62/79
s 3
f 135/52/81 134/125/66 64/64/82 136/63/83
f 134/125/66 54/54/65 65/127/84 64/64/82
s 1
f 54/54/68 55/55/67 66/66/85 65/65/86
f 56/56/70 57/57/69 68/68/87 67/67/88
s 2
f 57/128/89 58/58/74 128/69/90 68/68/91
f 58/58/74 126/126/73 129/70/92 128/69/90
s 1
f 59/59/93 60/60/78 71/71/94 70/70/95
f 60/60/78 61/61/77 72/72/96 71/71/94
f 61/61/77 62/62/79 73/73/97 72/72/96
s 3
f 137/129/98 136/63/83 74/74/99 138/130/100
f 136/63/83 64/64/82 75/75/101 74/74/99
s 1
f 64/64/102 65/65/86 76/76/103 75/75/104
f 65/65/86 66/66/85 77/77/105 76/76/103
s 2
f 67/67/106 68/68/91 130/79/107 131/131/108
f 68/68/91 128/69/90 132/80/109 130/79/107
s 1
f 69/69/110 70/70/95 81/81/111 80/80/112
f 70/70/95 71/71/94 82/82/113 81/81/111
f 71/71/94 72/72/96 83/83/114 82/82/113
s 3
f 139/132/115 138/130/100 84/84/116 140/133/117
f 138/130/100 74/74/99 85/85/118 84/84/116
s 1
f 74/74/119 75/75/104 86/86/120 85/85/121
f 75/75/104 76/76/103 87/87/122 86/86/120
f 76/76/103 77/77/105 88/88/123 87/87/122
f 78/78/124 79/79/125 90/90/126 89/89/127
f 79/79/125 80/80/112 91/91/128 90/90/126
f 80/80/112 81/81/111 92/92/129 91/91/128
f 81/81/111 82/82/113 93/93/130 92/92/129
f 82/82/113 83/83/114 94/94/131 93/93/130
s 3
f 140/133/117 84/84/116 95/95/132 141/134/133
s 1
f 84/84/134 85/85/121 96/96/135 95/95/136
f 85/85/121 86/86/120 97/97/137 96/96/135
f 86/86/120 87/87/122 98/98/138 97/97/137
f 87/87/122 88/88/123 99/99/139 98/98/138
f 89/89/127 90/90/126 101/101/140 100/100/141
f 90/90/126 91/91/128 102/102/142 101/101/140
f 91/91/128 92/92/129 103/103/143 102/102/142
f 92/92/129 93/93/130 104/104/144 103/103/143
s 3
f 142/135/145 141/134/133 105/105/146 143/136/147
f 141/134/133 95/95/132 106/106/148 105/105/146
s 1
f 95/95/136 96/96/135 107/107/149 106/106/150
f 96/96/135 97/97/137 108/108/151 107/107/149
f 97/97/137 98/98/138 109/109/152 108/108/151
f 98/98/138 99/99/139 110/110/153 109/109/152
f 100/100/141 101/101/140 112/112/154 111/111/155
f 101/101/140 102/102/142 113/113/156 112/112/154
f 102/102/142 103/103/143 114/114/157 113/113/156
f 103/103/143 104/104/144 115/115/158 114/114/157
s 3
f 143/136/147 105/105/146 116/116/159 144/137/160
s 1
f 105/105/161 106/106/150 117/117/162 116/116/163
f 106/106/150 107/107/149 118/118/164 117/117/162
f 107/107/149 108/108/151 119/119/165 118/118/164
f 108/108/151 109/109/152 120/120/166 119/119/165
f 109/109/152 110/110/153 121/121/167 120/120/166
s off
f 29/29/168 40/40/169 123/122/170
f 40/40/171 39/39/172 122/123/173 123/122/174
f 39/39/175 50/50/176 125/124/177 122/123/178
f 50/50/179 49/49/180 124/49/181 125/124/182
f 49/53/183 60/42/184 127/42/185 124/125/186
f 60/47/187 59/48/188 126/48/189 127/47/190
f 59/60/191 70/59/192 129/126/193 126/60/194
f 70/52/195 69/53/196 128/125/197 129/52/198
f 79/54/199 78/65/200 131/127/201 130/54/202
f 78/65/203 67/64/204 131/127/205
f 69/57/206 80/58/207 132/58/208 128/128/209
f 80/68/210 79/57/211 130/128/212 132/68/213
f 42/59/214 43/70/215 133/126/216
f 53/62/217 42/63/218 133/63/219 134/129/220
f 52/73/221 53/62/222 134/129/223 135/130/224
f 63/64/225 52/75/226 135/75/227 136/64/228
f 62/79/229 63/78/230 136/131/231 137/79/232
f 73/78/233 62/67/234 137/67/235 138/131/236
f 72/72/237 73/73/238 138/130/239 139/132/240
f 83/83/241 72/72/242 139/132/243 140/133/244
f 94/94/245 83/83/246 140/133/247 141/134/248
f 93/93/249 94/94/250 141/134/251 142/135/252
f 104/104/253 93/93/254 142/135/255 143/136/256
f 116/116/257 115/115/258 144/137/259
f 115/115/260 104/104/261 143/136/262 144/137/263
