# This file uses centimeters as units for non-parametric coordinates.

mtllib airplane.mtl
g default
v -0.515962 -0.393891 0.393891
v 0.515962 -0.393891 0.393891
v -0.666573 0.393891 0.393891
v 0.666573 0.393891 0.393891
v -0.666573 0.393891 -0.393891
v 0.666573 0.393891 -0.393891
v -0.515962 -0.393891 -0.393891
v 0.515962 -0.393891 -0.393891
v 0.000000 0.415397 0.407204
v 0.000000 0.415397 -0.407204
v 0.000000 -0.500000 -0.500000
v 0.000000 -0.500000 0.500000
v 0.666573 0.393891 -0.005274
v 0.000000 0.415397 0.004295
v -0.666573 0.393891 -0.005274
v -0.606393 -0.393891 -0.005274
v 0.000000 -0.500000 0.005274
v 0.606393 -0.393891 -0.005274
v 0.563105 0.258702 -0.393891
v 0.000000 0.328393 -0.500000
v -0.563105 0.258702 -0.393891
v -0.580831 0.258702 -0.005274
v -0.563105 0.258702 0.393891
v 0.000000 0.328393 0.500000
v 0.563105 0.258702 0.393891
v 0.580831 0.258702 -0.005274
v 1.215466 0.354666 0.393891
v 1.215466 0.354666 -0.005274
v 1.215466 0.395840 -0.005274
v 1.215466 0.395840 0.393891
v 1.215466 0.354666 -0.393891
v 1.215466 0.395840 -0.393891
v -1.215466 0.354666 -0.005274
v -1.215466 0.354666 0.393891
v -1.215466 0.395840 0.393891
v -1.215466 0.395840 -0.005274
v -1.215466 0.354666 -0.393891
v -1.215466 0.395840 -0.393891
v 2.759810 0.072416 0.620780
v 2.759810 0.072416 -0.008313
v 2.759810 0.174667 -0.008313
v 2.759810 0.174667 0.620780
v 2.759810 0.072416 -0.620780
v 2.759810 0.174667 -0.620780
v -2.760248 0.078293 -0.008313
v -2.759772 0.072416 0.620780
v -2.759772 0.174667 0.620780
v -2.759772 0.174667 -0.008313
v -2.759772 0.072416 -0.620780
v -2.759772 0.174667 -0.620780
v 0.666573 -0.102046 -0.393891
v -0.666573 -0.102046 -0.393891
v -0.755284 -0.102046 -0.005274
v -0.666573 -0.102046 0.393891
v 0.000000 -0.129535 0.661349
v 0.666573 -0.102046 0.393891
v 0.755284 -0.102046 -0.005274
v 0.000000 0.114014 -1.255398
v 0.271655 0.080394 -1.149290
v 0.321571 -0.093639 -1.149290
v -0.271655 0.080394 -1.149290
v -0.321571 -0.093639 -1.149290
v 0.000000 -0.285622 -1.255398
v 0.248913 -0.234433 -1.149290
v -0.248912 -0.234433 -1.149290
v 0.000000 -0.008979 -1.698713
v 0.000000 -0.102149 -1.751938
v 0.099818 -0.023815 -1.556069
v 0.118787 -0.089640 -1.592605
v -0.099818 -0.023815 -1.556069
v -0.118787 -0.089640 -1.592605
v 0.000000 -0.156149 -1.698713
v 0.084362 -0.158578 -1.592605
v -0.084362 -0.158578 -1.592605
v 2.029531 0.195397 -0.393891
v 2.029531 0.169660 -0.393891
v 2.029531 0.169660 -0.005274
v 2.029531 0.169660 0.393891
v 2.029531 0.195397 0.393891
v 2.029531 0.195397 -0.005274
v -2.039260 0.193002 -0.393891
v -2.039260 0.193002 -0.005274
v -2.039260 0.193002 0.393891
v -2.039260 0.167449 0.393891
v -2.039532 0.168027 -0.005274
v -2.039260 0.167449 -0.393891
v 2.590096 0.347293 -1.000000
v 2.590096 -0.061901 -1.000000
v 2.590096 -0.061901 -0.012894
v 2.590096 -0.061901 1.000000
v 2.590096 0.347293 1.000000
v 2.590096 0.347293 -0.012894
v 2.323695 0.122967 -0.393891
v 2.323695 0.102808 -0.393891
v 2.323695 0.102808 -0.005274
v 2.323695 0.102808 0.393891
v 2.323695 0.122967 0.393891
v 2.323695 0.122967 -0.005274
v -2.266922 0.136945 -0.393891
v -2.266922 0.136945 -0.005274
v -2.266922 0.136945 0.393891
v -2.266922 0.115710 0.393891
v -2.267271 0.116447 -0.005274
v -2.266922 0.115710 -0.393891
v -2.552700 0.347293 -1.000000
v -2.552700 0.347293 -0.012249
v -2.552700 0.347293 1.000000
v -2.552700 -0.045793 1.000000
v -2.553116 -0.033327 -0.012249
v -2.552700 -0.045793 -1.000000
v 0.172927 0.019993 -1.356745
v 0.000000 0.041394 -1.462854
v -0.172927 0.019993 -1.356745
v -0.204702 -0.090792 -1.356745
v -0.158450 -0.180416 -1.356745
v 0.000000 -0.213002 -1.462854
v 0.158450 -0.180416 -1.356745
v 0.204702 -0.090792 -1.356745
vt 0.375000 0.000000
vt 0.625000 0.000000
vt 0.375000 0.250000
vt 0.625000 0.250000
vt 0.375000 0.500000
vt 0.625000 0.500000
vt 0.375000 0.750000
vt 0.625000 0.750000
vt 0.375000 1.000000
vt 0.625000 1.000000
vt 0.875000 0.000000
vt 0.875000 0.250000
vt 0.125000 0.000000
vt 0.125000 0.250000
vt 0.509037 0.250000
vt 0.509037 0.500000
vt 0.509037 0.750000
vt 0.509037 0.000000
vt 0.509037 1.000000
vt 0.625000 0.362573
vt 0.737573 0.250000
vt 0.509037 0.362573
vt 0.262427 0.250000
vt 0.375000 0.362573
vt 0.262427 0.000000
vt 0.375000 0.887427
vt 0.509037 0.887427
vt 0.625000 0.887427
vt 0.737573 0.000000
vt 0.625000 0.542902
vt 0.875000 0.207098
vt 0.509037 0.542902
vt 0.125000 0.207098
vt 0.375000 0.542902
vt 0.262427 0.207098
vt 0.375000 0.207098
vt 0.509037 0.207098
vt 0.625000 0.207098
vt 0.737573 0.207098
vt 0.625000 0.207098
vt 0.737573 0.207098
vt 0.737573 0.250000
vt 0.625000 0.250000
vt 0.262427 0.207098
vt 0.375000 0.207098
vt 0.375000 0.250000
vt 0.262427 0.250000
vt 0.125000 0.207098
vt 0.125000 0.250000
vt 0.875000 0.207098
vt 0.875000 0.250000
vt 0.625000 0.207098
vt 0.737573 0.207098
vt 0.737573 0.250000
vt 0.625000 0.250000
vt 0.262427 0.207098
vt 0.375000 0.207098
vt 0.375000 0.250000
vt 0.262427 0.250000
vt 0.125000 0.207098
vt 0.125000 0.250000
vt 0.875000 0.207098
vt 0.875000 0.250000
vt 0.625000 0.657384
vt 0.875000 0.092616
vt 0.509037 0.657384
vt 0.125000 0.092616
vt 0.375000 0.657384
vt 0.262427 0.092616
vt 0.375000 0.092616
vt 0.509037 0.092616
vt 0.625000 0.092616
vt 0.737573 0.092616
vt 0.509037 0.542902
vt 0.625000 0.542902
vt 0.625000 0.657384
vt 0.375000 0.542902
vt 0.375000 0.657384
vt 0.625000 0.750000
vt 0.509037 0.750000
vt 0.375000 0.750000
vt 0.509037 0.542902
vt 0.625000 0.542902
vt 0.625000 0.657384
vt 0.375000 0.542902
vt 0.375000 0.657384
vt 0.625000 0.750000
vt 0.509037 0.750000
vt 0.375000 0.750000
vt 0.375000 0.250000
vt 0.375000 0.207098
vt 0.737573 0.207098
vt 0.262427 0.207098
vt 0.625000 0.207098
vt 0.625000 0.250000
vt 0.262427 0.250000
vt 0.737573 0.250000
vt 0.875000 0.250000
vt 0.125000 0.207098
vt 0.875000 0.207098
vt 0.125000 0.250000
vt 0.262427 0.207098
vt 0.262427 0.250000
vt 0.875000 0.207098
vt 0.125000 0.207098
vt 0.737573 0.250000
vt 0.737573 0.207098
vt 0.375000 0.250000
vt 0.375000 0.207098
vt 0.737573 0.207098
vt 0.262427 0.207098
vt 0.625000 0.207098
vt 0.625000 0.250000
vt 0.262427 0.250000
vt 0.737573 0.250000
vt 0.375000 0.250000
vt 0.375000 0.207098
vt 0.737573 0.207098
vt 0.262427 0.207098
vt 0.625000 0.207098
vt 0.625000 0.250000
vt 0.262427 0.250000
vt 0.737573 0.250000
vt 0.875000 0.250000
vt 0.125000 0.207098
vt 0.875000 0.207098
vt 0.125000 0.250000
vt 0.262427 0.207098
vt 0.262427 0.250000
vt 0.875000 0.207098
vt 0.125000 0.207098
vt 0.737573 0.250000
vt 0.737573 0.207098
vt 0.875000 0.250000
vt 0.125000 0.207098
vt 0.875000 0.207098
vt 0.125000 0.250000
vt 0.262427 0.207098
vt 0.262427 0.250000
vt 0.875000 0.207098
vt 0.125000 0.207098
vt 0.737573 0.250000
vt 0.737573 0.207098
vt 0.625000 0.542902
vt 0.509037 0.542902
vt 0.375000 0.542902
vt 0.375000 0.657384
vt 0.375000 0.750000
vt 0.509037 0.750000
vt 0.625000 0.750000
vt 0.625000 0.657384
vn -0.251227 0.247938 0.935634
vn -0.000000 0.254970 0.966949
vn -0.000000 0.338703 0.940893
vn -0.115712 0.336428 0.934573
vn -0.032247 0.999480 0.000000
vn 0.000000 1.000000 0.000000
vn 0.000000 1.000000 0.000000
vn -0.032247 0.999480 0.000000
vn -0.115712 0.336428 -0.934573
vn 0.000000 0.338704 -0.940893
vn 0.000000 0.338704 -0.940893
vn -0.115712 0.336428 -0.934573
vn -0.187520 -0.982261 -0.000200
vn 0.000000 -1.000000 0.000211
vn 0.000000 -0.999813 0.019328
vn -0.187661 -0.982050 0.018985
vn 1.000000 0.000000 0.000000
vn 1.000000 0.000000 0.000000
vn 1.000000 0.000000 0.000000
vn 1.000000 0.000000 0.000000
vn -0.999997 0.002399 -0.000000
vn -0.999997 0.002398 0.000390
vn -0.999997 0.002398 0.000390
vn -0.999997 0.002399 0.000000
vn 0.032247 0.999480 0.000000
vn 0.032247 0.999480 0.000000
vn 0.115712 0.336428 -0.934573
vn 0.115712 0.336428 -0.934573
vn 0.187520 -0.982261 -0.000200
vn 0.187661 -0.982050 0.018985
vn 0.251227 0.247938 0.935634
vn 0.115712 0.336428 0.934573
vn 0.032247 0.999480 0.000000
vn 0.000000 1.000000 0.000000
vn -0.032247 0.999480 0.000000
vn -0.999997 0.002399 -0.000400
vn -0.999997 0.002399 -0.000400
vn -0.187314 -0.982117 -0.018950
vn 0.000000 -0.999814 -0.019291
vn 0.187314 -0.982117 -0.018950
vn 1.000000 0.000000 0.000000
vn 1.000000 0.000000 0.000000
vn 0.000000 0.116347 -0.993209
vn 0.000000 0.589759 -0.807579
vn 0.746485 0.392427 -0.537365
vn 0.801243 0.136800 -0.582491
vn -0.746485 0.392427 -0.537365
vn -0.801243 0.136800 -0.582491
vn -0.984064 -0.021679 -0.176491
vn -0.999874 -0.015897 0.000150
vn -0.933162 0.359455 -0.000021
vn -0.925635 0.356556 -0.126760
vn -0.984869 -0.021566 0.171954
vn -0.926023 0.356705 0.123462
vn -0.311063 0.021655 0.950143
vn -0.000000 -0.010151 0.999949
vn 0.311063 0.021655 0.950143
vn 0.984869 -0.021566 0.171954
vn 0.999874 -0.015897 0.000150
vn 0.933162 0.359455 -0.000021
vn 0.926023 0.356705 0.123462
vn 0.925635 0.356556 -0.126760
vn 0.984064 -0.021679 -0.176491
vn 0.147497 -0.989057 0.003275
vn 0.147497 -0.989057 0.003275
vn 0.147497 -0.989057 0.003275
vn 0.147497 -0.989057 0.003275
vn -0.003550 0.999994 0.000000
vn -0.003550 0.999994 0.000000
vn -0.003550 0.999994 0.000000
vn -0.003550 0.999994 0.000000
vn 0.000000 0.000000 1.000000
vn 0.000000 0.000000 1.000000
vn 0.000000 0.000000 1.000000
vn 0.000000 0.000000 1.000000
vn 0.147497 -0.989057 -0.003364
vn 0.147497 -0.989057 -0.003364
vn 0.147497 -0.989057 -0.003364
vn 0.147497 -0.989057 -0.003364
vn 0.000000 0.000000 -1.000000
vn 0.000000 0.000000 -1.000000
vn 0.000000 0.000000 -1.000000
vn 0.000000 0.000000 -1.000000
vn -0.003550 0.999994 0.000000
vn -0.003550 0.999994 0.000000
vn -0.003550 0.999994 0.000000
vn -0.003550 0.999994 0.000000
vn -0.147497 -0.989057 0.003275
vn -0.147497 -0.989057 0.003275
vn -0.147497 -0.989057 0.003275
vn -0.147497 -0.989057 0.003275
vn 0.000000 0.000000 1.000000
vn 0.000000 0.000000 1.000000
vn 0.000000 0.000000 1.000000
vn 0.000000 0.000000 1.000000
vn 0.003550 0.999994 0.000000
vn 0.003550 0.999994 0.000000
vn 0.003550 0.999994 0.000000
vn 0.003550 0.999994 0.000000
vn -0.147497 -0.989057 -0.003364
vn -0.147497 -0.989057 -0.003364
vn -0.147497 -0.989057 -0.003364
vn -0.147497 -0.989057 -0.003364
vn 0.003550 0.999994 0.000000
vn 0.003550 0.999994 0.000000
vn 0.003550 0.999994 0.000000
vn 0.003550 0.999994 0.000000
vn -0.000000 0.000000 -1.000000
vn -0.000000 0.000000 -1.000000
vn -0.000000 0.000000 -1.000000
vn -0.000000 0.000000 -1.000000
vn -0.221611 -0.975135 0.000000
vn -0.221611 -0.975135 0.000000
vn -0.221611 -0.975135 0.000000
vn -0.221611 -0.975135 0.000000
vn 0.239084 0.970999 0.000000
vn 0.239084 0.970999 0.000000
vn 0.239084 0.970999 0.000000
vn 0.239084 0.970999 0.000000
vn 0.000000 0.000000 1.000000
vn 0.000000 0.000000 1.000000
vn 0.000000 0.000000 1.000000
vn 0.000000 0.000000 1.000000
vn -0.221611 -0.975135 0.000000
vn -0.221611 -0.975135 0.000000
vn -0.221611 -0.975135 0.000000
vn -0.221611 -0.975135 0.000000
vn 0.000000 0.000000 -1.000000
vn 0.000000 0.000000 -1.000000
vn 0.000000 0.000000 -1.000000
vn 0.000000 0.000000 -1.000000
vn 0.239084 0.970999 0.000000
vn 0.239084 0.970999 0.000000
vn 0.239084 0.970999 0.000000
vn 0.239084 0.970999 0.000000
vn 0.221251 -0.975217 -0.000781
vn 0.221251 -0.975217 -0.000781
vn 0.221251 -0.975216 -0.000997
vn 0.221251 -0.975216 -0.000997
vn 0.000000 0.000000 1.000000
vn 0.000000 0.000000 1.000000
vn 0.000000 0.000000 1.000000
vn 0.000000 0.000000 1.000000
vn -0.239084 0.970999 0.000000
vn -0.239084 0.970999 0.000000
vn -0.239084 0.970999 0.000000
vn -0.239084 0.970999 0.000000
vn 0.221251 -0.975217 0.000802
vn 0.221251 -0.975217 0.000802
vn 0.221251 -0.975216 0.001024
vn 0.221251 -0.975216 0.001024
vn -0.239084 0.970999 0.000000
vn -0.239084 0.970999 0.000000
vn -0.239084 0.970999 0.000000
vn -0.239084 0.970999 0.000000
vn 0.000000 0.000000 -1.000000
vn 0.000000 0.000000 -1.000000
vn -0.000000 0.000000 -1.000000
vn -0.000000 0.000000 -1.000000
vn -0.000000 -0.629460 -0.777033
vn 0.722998 -0.434862 -0.536814
vn -0.722998 -0.434862 -0.536814
vn -0.871574 -0.447218 -0.200885
vn -0.889711 -0.456525 -0.000157
vn -0.872493 -0.447690 0.195783
vn -0.317942 -0.292044 0.902011
vn 0.000000 -0.308028 0.951377
vn 0.317942 -0.292044 0.902011
vn 0.872493 -0.447690 0.195783
vn 0.889711 -0.456525 -0.000157
vn 0.871574 -0.447218 -0.200885
vn 0.187887 0.941174 -0.280875
vn 0.187887 0.941174 -0.280875
vn 0.187887 0.941174 -0.280875
vn 0.187887 0.941174 -0.280875
vn 0.881152 0.252728 -0.399623
vn 0.881152 0.252728 -0.399624
vn 0.881152 0.252728 -0.399624
vn 0.881152 0.252728 -0.399623
vn -0.187887 0.941174 -0.280875
vn -0.187887 0.941174 -0.280875
vn -0.187887 0.941174 -0.280875
vn -0.187887 0.941174 -0.280875
vn -0.881152 0.252728 -0.399624
vn -0.881152 0.252728 -0.399623
vn -0.881152 0.252728 -0.399623
vn -0.881152 0.252728 -0.399624
vn 0.821943 -0.424173 -0.380114
vn 0.821943 -0.424173 -0.380115
vn 0.821943 -0.424173 -0.380115
vn 0.821943 -0.424173 -0.380115
vn 0.266417 -0.923606 -0.275633
vn 0.266417 -0.923607 -0.275633
vn 0.266417 -0.923606 -0.275633
vn 0.266417 -0.923606 -0.275633
vn -0.266417 -0.923606 -0.275633
vn -0.266417 -0.923606 -0.275633
vn -0.266417 -0.923606 -0.275633
vn -0.266417 -0.923606 -0.275633
vn -0.821943 -0.424173 -0.380115
vn -0.821943 -0.424173 -0.380114
vn -0.821943 -0.424173 -0.380115
vn -0.821943 -0.424173 -0.380115
vn 0.278913 0.893191 -0.352727
vn 0.278913 0.893192 -0.352727
vn 0.290325 0.895279 -0.337915
vn 0.318370 0.899109 -0.300407
vn 0.846607 0.242820 -0.473598
vn 0.846607 0.242820 -0.473598
vn 0.859450 0.271879 -0.432930
vn 0.859514 0.272036 -0.432704
vn -0.278914 0.893191 -0.352727
vn -0.278913 0.893191 -0.352727
vn -0.318370 0.899109 -0.300407
vn -0.290325 0.895279 -0.337915
vn -0.846607 0.242820 -0.473598
vn -0.846607 0.242820 -0.473598
vn -0.859514 0.272035 -0.432704
vn -0.859450 0.271878 -0.432930
vn 0.792626 -0.409044 -0.452136
vn 0.792626 -0.409044 -0.452136
vn 0.818601 -0.419813 -0.391981
vn 0.815164 -0.418409 -0.400553
vn 0.357359 -0.868684 -0.343049
vn 0.357359 -0.868684 -0.343049
vn 0.323504 -0.907545 -0.267783
vn 0.348080 -0.880416 -0.322038
vn -0.357359 -0.868684 -0.343049
vn -0.357359 -0.868684 -0.343049
vn -0.348080 -0.880416 -0.322038
vn -0.323504 -0.907545 -0.267783
vn -0.792626 -0.409044 -0.452136
vn -0.792626 -0.409044 -0.452136
vn -0.815164 -0.418409 -0.400553
vn -0.818601 -0.419813 -0.391981
vn -0.898319 0.000000 -0.439345
vn -0.902210 0.000000 -0.431298
vn -0.456542 -0.889702 0.000000
vn -0.422843 -0.906203 0.000000
vn -0.424923 -0.905230 0.000000
vn -0.456503 -0.889722 0.000000
vn -0.902210 0.000000 0.431298
vn -0.898319 0.000000 0.439345
vn -0.479001 0.877814 0.000000
vn -0.392964 0.919554 0.000000
vn -0.387509 0.921866 0.000000
vn -0.479105 0.877757 0.000000
vn 0.466146 0.884708 0.000000
vn 0.393957 0.919129 0.000000
vn 0.397765 0.917487 0.000000
vn 0.465959 0.884806 0.000000
vn 0.889936 0.000000 0.456086
vn 0.893311 0.000000 0.449440
vn 0.425003 -0.905163 -0.007235
vn 0.402614 -0.915346 -0.006626
vn 0.401045 -0.916034 0.006760
vn 0.424774 -0.905269 0.007423
vn 0.893311 0.000000 -0.449440
vn 0.889936 0.000000 -0.456086
vn -0.361886 0.000000 -0.932222
vn -0.363810 0.000000 -0.931473
vn 0.912761 0.000000 -0.408494
vn 0.912761 0.000000 -0.408494
vn -0.019087 -0.999818 0.000000
vn 0.010618 -0.999944 0.000000
vn 0.620588 -0.784137 0.000000
vn 0.620588 -0.784137 0.000000
vn 0.010653 -0.999943 0.000000
vn -0.017667 -0.999844 0.000000
vn 0.620588 -0.784137 0.000000
vn 0.620588 -0.784137 0.000000
vn -0.363810 0.000000 0.931473
vn -0.361887 0.000000 0.932222
vn 0.912761 0.000000 0.408494
vn 0.912761 0.000000 0.408494
vn -0.049943 0.998752 0.000000
vn -0.011732 0.999931 0.000000
vn 0.713095 0.701067 0.000000
vn 0.713095 0.701067 0.000000
vn -0.011778 0.999931 0.000000
vn -0.051690 0.998663 0.000000
vn 0.713095 0.701068 0.000000
vn 0.713095 0.701068 0.000000
vn -0.042023 0.999117 0.000000
vn 0.019556 0.999809 0.000000
vn 0.016961 0.999856 0.000000
vn -0.042113 0.999113 0.000000
vn 0.327824 0.000000 0.944739
vn 0.295338 0.000000 0.955393
vn 0.008042 -0.999915 -0.010245
vn 0.040066 -0.999145 -0.010201
vn 0.041737 -0.999074 0.010459
vn 0.008090 -0.999912 0.010507
vn 0.295338 0.000000 -0.955393
vn 0.327824 0.000000 -0.944739
vn -0.640331 0.768100 0.000000
vn -0.640330 0.768100 0.000000
vn -0.640331 0.768099 0.000000
vn -0.640331 0.768099 0.000000
vn -0.877678 0.000000 0.479252
vn -0.877678 0.000000 0.479252
vn -0.478533 -0.878018 -0.009552
vn -0.478533 -0.878018 -0.009552
vn -0.478216 -0.878187 0.009800
vn -0.478216 -0.878187 0.009800
vn -0.877677 0.000000 -0.479252
vn -0.877678 0.000000 -0.479252
vn 0.351424 0.901088 -0.254049
vn 0.351424 0.901088 -0.254049
vn -0.351424 0.901089 -0.254049
vn -0.351424 0.901089 -0.254049
vn -0.877530 0.325062 -0.352528
vn -0.877530 0.325062 -0.352528
vn -0.847772 -0.431349 -0.308579
vn -0.847772 -0.431349 -0.308579
vn -0.292522 -0.934708 -0.201870
vn -0.292522 -0.934708 -0.201870
vn 0.292522 -0.934708 -0.201870
vn 0.292522 -0.934708 -0.201870
vn 0.847772 -0.431349 -0.308579
vn 0.847772 -0.431349 -0.308579
vn 0.877530 0.325062 -0.352528
vn 0.877530 0.325062 -0.352528
s 1
g pCube1
usemtl initialShadingGroup
f 23/36/1 24/37/2 9/15/3 3/3/4
s 2
f 3/3/5 9/15/6 14/22/7 15/24/8
s 3
f 5/5/9 10/16/10 20/32/11 21/34/12
s 4
f 16/26/13 17/27/14 12/19/15 1/9/16
s 5
f 39/52/17 40/53/18 41/54/19 42/55/20
s 6
f 45/56/21 46/57/22 47/58/23 48/59/24
s 2
f 9/15/6 4/4/25 13/20/26 14/22/7
s 3
f 20/32/11 10/16/10 6/6/27 19/30/28
s 4
f 12/19/15 17/27/14 18/28/29 2/10/30
s 1
f 9/15/3 24/37/2 25/38/31 4/4/32
s 2
f 14/22/7 13/20/26 6/6/33 10/16/34
f 15/24/8 14/22/7 10/16/34 5/5/35
s 6
f 49/60/36 45/56/21 48/59/24 50/61/37
s 4
f 7/7/38 11/17/39 17/27/14 16/26/13
f 18/28/29 17/27/14 11/17/39 8/8/40
s 5
f 41/54/19 40/53/18 43/62/41 44/63/42
s 7
f 67/66/43 66/82/44 68/83/45 69/84/46
f 70/85/47 66/82/44 67/66/43 71/86/48
s 8
f 52/67/49 53/69/50 22/35/51 21/33/52
f 53/69/50 54/70/53 23/36/54 22/35/51
s 1
f 54/70/55 55/71/56 24/37/2 23/36/1
f 25/38/31 24/37/2 55/71/56 56/72/57
s 9
f 56/72/58 57/73/59 26/39/60 25/38/61
f 19/31/62 26/39/60 57/73/59 51/65/63
s off
f 25/38/64 26/39/65 28/41/66 27/40/67
f 13/21/68 4/4/69 30/43/70 29/42/71
f 4/4/72 25/38/73 27/40/74 30/43/75
f 26/35/76 19/36/77 31/45/78 28/44/79
f 19/36/80 6/3/81 32/46/82 31/45/83
f 6/3/84 13/23/85 29/47/86 32/46/87
f 22/33/88 23/35/89 34/44/90 33/48/91
f 23/23/92 3/14/93 35/49/94 34/47/95
f 3/14/96 15/33/97 36/48/98 35/49/99
f 21/39/100 22/31/101 33/50/102 37/41/103
f 15/31/104 5/12/105 38/51/106 36/50/107
f 5/12/108 21/21/109 37/42/110 38/51/111
s 10
f 27/40/112 28/41/113 77/92/114 78/94/115
s 11
f 29/42/116 30/43/117 79/95/118 80/97/119
s 12
f 30/43/120 27/40/121 78/94/122 79/95/123
s 13
f 28/44/124 31/45/125 76/91/126 77/93/127
s 14
f 31/45/128 32/46/129 75/90/130 76/91/131
s 15
f 32/46/132 29/47/133 80/96/134 75/90/135
s 16
f 33/48/136 34/44/137 84/102/138 85/105/139
s 17
f 34/47/140 35/49/141 83/101/142 84/103/143
s 18
f 35/49/144 36/48/145 82/99/146 83/101/147
s 19
f 37/41/148 33/50/149 85/104/150 86/107/151
s 20
f 36/50/152 38/51/153 81/98/154 82/100/155
s 21
f 38/51/156 37/42/157 86/106/158 81/98/159
s 7
f 72/88/160 67/66/43 69/84/46 73/87/161
f 71/86/48 67/66/43 72/88/160 74/89/162
s 8
f 7/13/163 16/25/164 53/69/50 52/67/49
f 16/25/164 1/1/165 54/70/53 53/69/50
s 1
f 1/1/166 12/18/167 55/71/56 54/70/55
f 56/72/57 55/71/56 12/18/167 2/2/168
s 9
f 2/2/169 18/29/170 57/73/59 56/72/58
f 51/65/63 57/73/59 18/29/170 8/11/171
s off
f 20/32/172 19/30/173 59/75/174 58/74/175
f 19/30/176 51/64/177 60/76/178 59/75/179
f 21/34/180 20/32/181 58/74/182 61/77/183
f 52/68/184 21/34/185 61/77/186 62/78/187
f 51/64/188 8/8/189 64/79/190 60/76/191
f 8/8/192 11/17/193 63/80/194 64/79/195
f 11/17/196 7/7/197 65/81/198 63/80/199
f 7/7/200 52/68/201 62/78/202 65/81/203
s 22
f 58/74/204 59/75/205 111/144/206 112/145/207
s 23
f 59/75/208 60/76/209 118/151/210 111/144/211
s 24
f 61/77/212 58/74/213 112/145/214 113/146/215
s 25
f 62/78/216 61/77/217 113/146/218 114/147/219
s 26
f 60/76/220 64/79/221 117/150/222 118/151/223
s 27
f 64/79/224 63/80/225 116/149/226 117/150/227
s 28
f 63/80/228 65/81/229 115/148/230 116/149/231
s 29
f 65/81/232 62/78/233 114/147/234 115/148/235
s 14
f 76/91/131 75/90/130 93/116/236 94/117/237
s 13
f 77/93/127 76/91/126 94/117/238 95/119/239
s 10
f 78/94/115 77/92/114 95/118/240 96/120/241
s 12
f 79/95/123 78/94/122 96/120/242 97/121/243
s 11
f 80/97/119 79/95/118 97/121/244 98/123/245
s 15
f 75/90/135 80/96/134 98/122/246 93/116/247
s 20
f 82/100/155 81/98/154 99/124/248 100/126/249
s 18
f 83/101/147 82/99/146 100/125/250 101/127/251
s 17
f 84/103/143 83/101/142 101/127/252 102/129/253
s 16
f 85/105/139 84/102/138 102/128/254 103/131/255
s 19
f 86/107/151 85/104/150 103/130/256 104/133/257
s 21
f 81/98/159 86/106/158 104/132/258 99/124/259
s 14
f 88/109/260 87/108/261 44/58/262 43/57/263
s 13
f 89/111/264 88/109/265 43/57/266 40/56/267
s 10
f 90/112/268 89/110/269 40/53/270 39/52/271
s 12
f 91/113/272 90/112/273 39/52/274 42/55/275
s 11
f 92/115/276 91/113/277 42/55/278 41/54/279
s 15
f 87/108/280 92/114/281 41/59/282 44/58/283
s 14
f 94/117/237 93/116/236 87/108/261 88/109/260
s 13
f 95/119/239 94/117/238 88/109/265 89/111/264
s 10
f 96/120/241 95/118/240 89/110/269 90/112/268
s 12
f 97/121/243 96/120/242 90/112/273 91/113/272
s 11
f 98/123/245 97/121/244 91/113/277 92/115/276
s 15
f 93/116/247 98/122/246 92/114/281 87/108/280
s 20
f 100/126/249 99/124/248 105/134/284 106/136/285
s 18
f 101/127/251 100/125/250 106/135/286 107/137/287
s 17
f 102/129/253 101/127/252 107/137/288 108/139/289
s 16
f 103/131/255 102/128/254 108/138/290 109/141/291
s 19
f 104/133/257 103/130/256 109/140/292 110/143/293
s 21
f 99/124/259 104/132/258 110/142/294 105/134/295
s 20
f 106/136/285 105/134/284 50/63/296 48/62/297
s 18
f 107/137/287 106/135/286 48/60/298 47/61/299
s 17
f 108/139/289 107/137/288 47/61/300 46/59/301
s 16
f 109/141/291 108/138/290 46/56/302 45/60/303
s 19
f 110/143/293 109/140/292 45/62/304 49/53/305
s 21
f 105/134/295 110/142/294 49/54/306 50/63/307
s 22
f 112/145/207 111/144/206 68/83/308 66/82/309
s 24
f 113/146/215 112/145/214 66/82/310 70/85/311
s 25
f 114/147/219 113/146/218 70/85/312 71/86/313
s 29
f 115/148/235 114/147/234 71/86/314 74/89/315
s 28
f 116/149/231 115/148/230 74/89/316 72/88/317
s 27
f 117/150/227 116/149/226 72/88/318 73/87/319
s 26
f 118/151/223 117/150/222 73/87/320 69/84/321
s 23
f 111/144/211 118/151/210 69/84/322 68/83/323
